{"accessors":[{"bufferView":2,"componentType":5126,"count":1056,"max":[0.9999979734420776,1.0000040531158447,1.0],"min":[-8.100811004638672,-6.533763885498047,-17.222858428955078],"type":"VEC3"},{"bufferView":2,"byteOffset":12672,"componentType":5126,"count":1056,"max":[1.0,1.0,1.0],"min":[-1.0,-1.0,-1.0],"type":"VEC3"},{"bufferView":3,"componentType":5126,"count":1056,"max":[0.9206801056861877,0.9999409317970276,0.9999402165412903,1.0],"min":[-0.9875790476799011,-0.9813351631164551,-0.9988980293273926,1.0],"type":"VEC4"},{"bufferView":1,"componentType":5126,"count":1056,"max":[0.7896320223808289,0.9958710074424744],"min":[0.05051900073885918,0.0006830000202171504],"type":"VEC2"},{"bufferView":0,"componentType":5125,"count":5760,"type":"SCALAR"},{"bufferView":2,"byteOffset":25344,"componentType":5126,"count":5108,"max":[2.0909790992736816,12.082477569580078,1.2817339897155762],"min":[-2.0909790992736816,-0.9830039739608765,-2.0059549808502197],"type":"VEC3"},{"bufferView":2,"byteOffset":86640,"componentType":5126,"count":5108,"max":[1.0,0.9980849027633667,0.9999962449073792],"min":[-1.0,-0.9991437792778015,-0.9998666644096375],"type":"VEC3"},{"bufferView":3,"byteOffset":16896,"componentType":5126,"count":5108,"max":[0.9999634027481079,0.9995465874671936,0.9999991059303284,1.0],"min":[-0.9999997019767761,-0.9968500733375549,-0.9986778497695923,-1.0],"type":"VEC4"},{"bufferView":1,"byteOffset":8448,"componentType":5126,"count":5108,"max":[0.9566429853439331,0.9995120167732239],"min":[0.0004879999905824661,0.0004879999905824661],"type":"VEC2"},{"bufferView":0,"byteOffset":23040,"componentType":5125,"count":26343,"type":"SCALAR"}],"asset":{"extras":{"credit":"This work is based on \"Humpback Whale\" (https://sketchfab.com/3d-models/humpback-whale-38ef05f57bea4de690fab5aed0352a32) by dashkilya (https://sketchfab.com/dashkilya), licensed under CC-BY-4.0. Textures resized and re-encoded."},"generator":"Sketchfab-16.16.0","version":"2.0"},"bufferViews":[{"buffer":0,"byteLength":128412,"name":"floatBufferViews","target":34963},{"buffer":0,"byteLength":49312,"byteOffset":128412,"byteStride":8,"name":"floatBufferViews","target":34962},{"buffer":0,"byteLength":147936,"byteOffset":177724,"byteStride":12,"name":"floatBufferViews","target":34962},{"buffer":0,"byteLength":98624,"byteOffset":325660,"byteStride":16,"name":"floatBufferViews","target":34962}],"buffers":[{"byteLength":424284,"uri":"scene.bin"}],"images":[{"uri":"textures/color-1024.webp","mimeType":"image/webp"},{"uri":"textures/orm-1024.webp","mimeType":"image/webp"},{"uri":"textures/orm-1024.webp","mimeType":"image/webp"},{"uri":"textures/normal-1024.webp","mimeType":"image/webp"}],"materials":[{"alphaMode":"OPAQUE","doubleSided":false,"name":"DefaultMaterial","normalTexture":{"index":3},"occlusionTexture":{"index":1},"pbrMetallicRoughness":{"baseColorTexture":{"index":0},"metallicRoughnessTexture":{"index":1}}}],"meshes":[{"name":"defaultMaterial","primitives":[{"attributes":{"NORMAL":1,"POSITION":0,"TANGENT":2,"TEXCOORD_0":3},"indices":4,"material":0,"mode":4}]},{"name":"defaultMaterial","primitives":[{"attributes":{"NORMAL":6,"POSITION":5,"TANGENT":7,"TEXCOORD_0":8},"indices":9,"material":0,"mode":4}]}],"nodes":[{"children":[1],"matrix":[1.0,0.0,0.0,0.0,0.0,2.220446049250313e-16,-1.0,0.0,0.0,1.0,2.220446049250313e-16,0.0,0.0,0.0,0.0,1.0],"name":"Sketchfab_model"},{"children":[2,4],"matrix":[1.0,0.0,0.0,0.0,0.0,-4.371139006309477e-08,0.999999999999999,0.0,0.0,-0.999999999999999,-4.371139006309477e-08,0.0,0.0,0.0,0.0,1.0],"name":"Collada visual scene group"},{"children":[3],"matrix":[2.694163,-6.51078,0.831994,0.0,2.087615,-1e-06,-6.760115,0.0,6.282796,2.847758,1.940212,0.0,66.331802,77.821609,-7.4587,1.0],"name":"Sphere_low"},{"mesh":0,"name":"defaultMaterial"},{"children":[5],"matrix":[100.0,0.0,0.0,0.0,0.0,-1.6e-05,-100.0,0.0,0.0,100.0,-1.6e-05,0.0,0.0,26.136169,206.085922,1.0],"name":"Cube_low"},{"mesh":1,"name":"defaultMaterial"}],"samplers":[{"magFilter":9729,"minFilter":9987,"wrapS":10497,"wrapT":10497}],"scene":0,"scenes":[{"name":"Sketchfab_Scene","nodes":[0]}],"textures":[{"sampler":0,"source":0},{"sampler":0,"source":1},{"sampler":0,"source":2},{"sampler":0,"source":3}]}